<?xml version="1.0" standalone="no"?>
<!DOCTYPE svg PUBLIC "-//W3C//DTD SVG 20010904//EN"
 "http://www.w3.org/TR/2001/REC-SVG-20010904/DTD/svg10.dtd">
<svg version="1.0" xmlns="http://www.w3.org/2000/svg"
 width="450.000000pt" height="470.000000pt" viewBox="0 0 450.000000 470.000000"
 preserveAspectRatio="xMidYMid meet">

<g transform="translate(0.000000,470.000000) scale(0.100000,-0.100000)"
fill="#000000" stroke="none">
<path d="M2260 4183 c0 -27 -2 -79 -5 -114 -3 -45 -2 -55 4 -34 5 17 8 -275 7
-680 l-1 -710 -30 -6 c-24 -5 -19 -7 23 -8 50 -1 98 -18 132 -46 14 -12 100
-21 275 -30 71 -3 68 -3 -19 6 -55 5 -102 11 -104 14 -4 4 56 76 150 182 l38
43 27 -43 c28 -44 66 -133 77 -179 5 -24 3 -27 -26 -31 -26 -3 -22 -4 14 -5
47 -2 48 -2 36 23 -13 29 -11 32 22 39 62 13 150 39 147 43 -3 2 -41 -5 -85
-16 -94 -24 -102 -25 -102 -8 0 6 -11 35 -24 63 -18 39 -21 55 -13 64 9 8 8
10 -3 6 -10 -4 -23 6 -36 27 l-21 33 117 139 c65 77 124 140 131 140 12 0 119
-138 119 -154 0 -8 -266 -161 -280 -161 -5 0 -10 -4 -10 -10 0 -12 13 -13 26
-1 7 8 56 36 267 158 4 2 23 -28 43 -69 19 -40 32 -62 28 -48 -4 14 -17 46
-30 72 -13 26 -24 49 -24 52 0 4 106 66 115 66 12 0 105 -220 105 -250 0 -4
-12 -13 -27 -19 l-28 -11 32 6 c30 5 31 4 42 -44 5 -27 13 -79 17 -116 6 -62
6 -66 -12 -60 -14 4 -15 3 -6 -3 7 -6 36 -10 65 -10 38 0 42 1 15 4 -33 4 -38
8 -42 36 -27 195 -55 296 -118 422 -45 89 -79 141 -145 222 -42 51 -51 90 -15
61 15 -12 16 -11 4 4 -12 15 -4 29 74 120 48 57 95 112 103 122 9 11 -37 -26
-102 -82 -65 -56 -120 -102 -124 -102 -4 0 -16 8 -27 18 -21 17 -21 17 -3 -5
11 -12 16 -26 13 -32 -4 -5 -45 21 -94 60 -154 124 -381 217 -573 237 l-74 7
-3 35 c-1 19 -13 162 -26 318 -22 264 -36 362 -36 245z m223 -635 c75 -13 75
-12 51 -94 -15 -52 -16 -53 -47 -49 l-32 5 32 -10 31 -10 -24 -88 c-13 -48
-23 -91 -21 -96 2 -5 14 31 26 80 13 49 25 92 28 96 2 4 34 -4 71 -17 36 -13
68 -22 70 -21 3 3 -49 24 -127 51 -7 3 -11 11 -8 18 2 6 10 36 17 65 8 28 17
52 22 52 31 0 248 -98 248 -112 0 -4 -14 -33 -31 -63 l-31 -55 -35 21 c-19 12
-36 19 -38 17 -2 -2 11 -12 30 -23 19 -10 35 -21 34 -24 -1 -18 -159 -276
-167 -274 -6 1 -8 -6 -5 -16 3 -10 0 -21 -5 -25 -9 -6 -134 43 -140 55 -1 3
-13 4 -26 2 -13 -3 -27 0 -30 6 -7 10 -36 299 -36 354 0 21 5 27 23 28 22 2
22 2 1 6 -25 5 -34 29 -34 97 l0 49 43 -7 c23 -3 72 -11 110 -18z m425 -177
c31 -22 75 -55 97 -74 l39 -35 -34 -28 c-19 -16 -69 -58 -110 -94 -41 -36
-116 -100 -167 -143 l-92 -78 -34 23 -34 22 69 120 c39 67 81 140 95 164 28
49 24 50 130 -28 47 -35 55 -39 28 -15 -22 20 -59 48 -82 63 -24 15 -43 29
-43 32 0 14 62 110 71 110 5 0 36 -18 67 -39z m292 -296 c22 -32 36 -62 32
-66 -4 -4 -30 -21 -58 -37 l-51 -30 -54 76 c-30 41 -58 80 -63 87 -6 9 5 29
35 64 l44 52 38 -43 c20 -24 55 -70 77 -103z m-675 -111 c28 -13 61 -32 74
-42 l23 -19 -113 -97 -114 -97 -6 68 c-3 37 -9 107 -13 155 l-7 87 53 -15 c29
-9 76 -27 103 -40z"/>
<path d="M2399 3417 c5 -5 19 -7 32 -5 20 3 19 5 -9 9 -20 3 -29 2 -23 -4z"/>
<path d="M2446 3124 c-9 -37 -15 -68 -13 -71 3 -2 12 26 21 63 9 37 15 68 13
71 -3 2 -12 -26 -21 -63z"/>
<path d="M2243 3930 c0 -36 2 -50 4 -32 2 17 2 47 0 65 -2 17 -4 3 -4 -33z"/>
<path d="M2233 3805 c0 -33 2 -45 4 -27 2 18 2 45 0 60 -2 15 -4 0 -4 -33z"/>
<path d="M2221 3694 c0 -28 -4 -65 -7 -81 -6 -29 -8 -30 -77 -36 -197 -17
-444 -123 -597 -257 l-57 -49 -121 105 c-67 57 -124 104 -127 104 -4 0 35 -48
86 -107 51 -60 100 -116 107 -125 13 -16 11 -22 -23 -59 -56 -62 -143 -201
-181 -289 -40 -92 -79 -238 -89 -332 l-6 -66 -57 -6 c-31 -4 -173 -15 -316
-26 -142 -11 -264 -21 -270 -22 -67 -9 242 -12 849 -10 l735 3 0 25 c0 30 31
93 56 115 11 9 33 24 49 33 28 16 19 16 -21 -1 -14 -5 -16 -2 -11 18 3 13 8
69 10 124 3 55 3 82 1 60 -7 -71 -15 -109 -22 -99 -5 7 -193 168 -211 181 -19
13 141 98 206 109 l39 6 -2 -74 c-1 -40 0 -62 2 -48 10 63 65 804 61 828 -2
15 -5 4 -6 -24z m-11 -141 c0 -10 -3 -41 -6 -69 l-6 -51 -72 -11 c-39 -7 -80
-13 -90 -15 -16 -2 -22 9 -34 56 -8 32 -16 56 -19 54 -2 -3 2 -30 10 -61 9
-31 12 -58 9 -60 -4 -2 -31 -11 -60 -21 -29 -9 -51 -19 -49 -21 2 -2 29 5 60
15 l57 20 14 -52 c9 -29 18 -65 22 -80 3 -15 8 -26 11 -24 2 3 -5 39 -15 81
l-20 76 37 9 c20 6 60 13 89 17 l54 7 -6 -54 c-3 -30 -11 -115 -17 -189 -6
-74 -13 -138 -16 -142 -2 -5 -14 -8 -26 -8 -12 0 -53 -14 -92 -30 l-70 -30
-18 22 -18 23 12 -24 c10 -22 9 -27 -17 -48 -16 -13 -32 -22 -36 -20 -5 1 -71
56 -148 121 -159 136 -155 121 -46 197 63 45 70 47 81 31 6 -9 42 -70 79 -134
38 -65 70 -118 73 -118 2 0 -9 24 -26 53 -16 28 -50 88 -75 132 -25 44 -46 83
-46 87 0 4 21 19 48 32 26 14 43 25 37 25 -5 1 -29 -10 -52 -23 l-43 -25 -34
57 c-18 31 -31 61 -28 66 17 31 266 117 387 135 95 14 105 13 105 -6z m-470
-199 c17 -31 30 -57 28 -58 -2 -2 -25 -18 -53 -36 -27 -18 -64 -46 -80 -61
l-31 -29 -49 41 c-28 23 -51 44 -53 48 -6 15 168 150 195 151 6 0 25 -25 43
-56z m-206 -231 c5 -10 -1 -25 -22 -46 -16 -18 -45 -55 -64 -84 l-34 -51 -57
35 -57 34 15 29 c8 15 42 63 76 105 l61 77 36 -43 c20 -23 41 -49 46 -56z
m145 -168 l119 -139 -22 -31 c-11 -16 -22 -31 -23 -33 -1 -3 -312 175 -322
184 -12 11 104 167 120 162 5 -2 63 -66 128 -143z m-327 14 c29 -17 54 -32 56
-34 2 -2 -10 -29 -26 -61 -16 -33 -37 -83 -47 -113 -16 -50 -19 -53 -45 -48
-77 16 -80 15 -25 -3 65 -21 101 -27 76 -11 -11 7 -10 17 4 62 10 30 31 80 47
112 l29 58 32 -19 c18 -11 91 -54 163 -96 l131 -76 -23 -48 c-13 -26 -24 -53
-24 -60 0 -7 -10 -17 -22 -22 -17 -6 -18 -9 -6 -9 12 -1 16 -8 14 -28 -4 -34
-11 -35 -313 -53 -114 -7 -212 -13 -218 -14 -11 -1 -11 7 6 122 6 46 18 90 26
98 8 8 10 14 4 14 -6 0 1 32 15 73 27 73 81 187 89 187 2 0 28 -14 57 -31z
m646 -394 c-6 -6 -196 -25 -248 -25 l-52 0 7 33 c9 41 58 149 85 187 l21 30
95 -111 c53 -61 94 -112 92 -114z"/>
<path d="M2066 3190 c4 -19 11 -44 15 -55 6 -14 7 -9 3 15 -4 19 -11 44 -15
55 -6 14 -7 9 -3 -15z"/>
<path d="M2092 3100 c0 -8 4 -26 8 -40 6 -20 8 -21 8 -5 0 11 -3 29 -8 40 -5
12 -8 14 -8 5z"/>
<path d="M1361 2686 c7 -7 241 -67 245 -63 2 2 -49 18 -115 35 -116 31 -139
36 -130 28z"/>
<path d="M1302 2625 c0 -16 2 -22 5 -12 2 9 2 23 0 30 -3 6 -5 -1 -5 -18z"/>
<path d="M1620 2616 c0 -2 7 -6 15 -10 8 -3 15 -1 15 4 0 6 -7 10 -15 10 -8 0
-15 -2 -15 -4z"/>
<path d="M1292 2560 c0 -19 2 -27 5 -17 2 9 2 25 0 35 -3 9 -5 1 -5 -18z"/>
<path d="M1914 3679 c-10 -17 13 -36 27 -22 12 12 4 33 -11 33 -5 0 -12 -5
-16 -11z"/>
<path d="M2577 3683 c-4 -3 -7 -12 -7 -20 0 -15 26 -18 34 -4 7 11 -18 33 -27
24z"/>
<path d="M1610 3546 c0 -21 21 -31 30 -15 5 7 6 17 4 21 -9 14 -34 9 -34 -6z"/>
<path d="M2874 3549 c-3 -6 -2 -15 4 -21 13 -13 32 -2 32 18 0 16 -26 19 -36
3z"/>
<path d="M2950 3397 c0 -2 19 -19 43 -37 23 -19 36 -26 28 -17 -15 19 -71 61
-71 54z"/>
<path d="M1534 3358 l-19 -23 23 19 c21 18 27 26 19 26 -2 0 -12 -10 -23 -22z"/>
<path d="M1484 3318 l-19 -23 23 19 c21 18 27 26 19 26 -2 0 -12 -10 -23 -22z"/>
<path d="M1389 3223 c-13 -16 -12 -17 4 -4 16 13 21 21 13 21 -2 0 -10 -8 -17
-17z"/>
<path d="M1146 3085 c-3 -9 1 -18 10 -22 19 -7 28 2 21 22 -8 19 -23 19 -31 0z"/>
<path d="M3346 3093 c-12 -12 -6 -33 9 -33 8 0 15 6 15 14 0 17 -14 28 -24 19z"/>
<path d="M1192 2915 c-17 -37 -14 -45 4 -12 9 16 14 31 11 33 -2 2 -9 -7 -15
-21z"/>
<path d="M1020 2776 c0 -8 4 -17 9 -20 11 -7 33 18 24 27 -12 12 -33 7 -33 -7z"/>
<path d="M3464 2779 c-7 -12 15 -31 28 -23 4 3 8 12 8 20 0 17 -26 19 -36 3z"/>
<path d="M3197 2762 c2 -8 6 -24 9 -36 4 -19 0 -25 -28 -34 l-33 -11 36 5 37
6 11 -64 c19 -109 19 -108 -41 -108 -85 0 -50 -7 62 -13 58 -3 83 -2 55 2
l-49 6 -13 84 c-7 47 -16 87 -19 90 -3 3 12 11 33 18 l38 12 -36 -5 c-33 -5
-37 -3 -50 28 -8 18 -14 27 -12 20z"/>
<path d="M3075 2665 c-39 -14 -40 -14 -5 -8 41 7 82 22 60 22 -8 0 -33 -7 -55
-14z"/>
<path d="M2182 2582 c-66 -35 -98 -125 -69 -195 9 -20 34 -49 58 -66 94 -69
219 -19 240 96 25 130 -111 227 -229 165z m137 -26 c37 -20 51 -39 61 -81 19
-86 -35 -155 -122 -155 -44 0 -54 4 -84 34 -32 32 -36 44 -36 96 0 45 3 53 36
86 28 28 42 34 75 34 23 0 54 -6 70 -14z"/>
<path d="M2889 2539 c-6 -4 43 -10 110 -14 67 -4 125 -5 128 -1 4 3 -20 6 -53
7 -32 0 -85 4 -117 8 -31 4 -62 4 -68 0z"/>
<path d="M2441 2484 c0 -11 3 -14 6 -6 3 7 2 16 -1 19 -3 4 -6 -2 -5 -13z"/>
<path d="M3605 2480 c40 -9 152 -13 144 -6 -2 2 -44 6 -94 9 -61 3 -77 2 -50
-3z"/>
<path d="M3820 2460 c30 -4 -266 -6 -658 -6 l-712 1 -1 -22 c-4 -70 -60 -142
-129 -166 -13 -5 -12 -6 1 -6 9 -1 28 8 42 19 34 27 37 26 31 -12 -2 -18 -18
-202 -34 -407 -28 -350 -34 -460 -23 -419 3 11 22 20 56 27 l52 10 -52 -5
c-39 -3 -53 -1 -53 8 0 7 7 90 15 183 8 94 15 176 15 183 0 6 11 12 25 12 25
0 34 -20 61 -133 3 -15 8 -26 11 -23 2 2 0 21 -6 42 -6 22 -12 48 -14 59 -2
11 -7 28 -12 38 -4 10 -6 19 -4 21 6 6 132 56 134 53 15 -19 185 -312 185
-319 0 -2 -27 -17 -60 -33 -33 -16 -58 -30 -56 -32 2 -3 31 9 64 26 l60 30 31
-54 c17 -30 31 -59 31 -63 0 -12 -143 -78 -220 -101 -67 -20 -139 -35 -222
-46 l-47 -6 -4 53 -3 53 -2 -61 -2 -60 73 8 c221 26 435 117 602 255 l63 52
128 -111 c70 -61 124 -105 119 -97 -5 8 -47 59 -94 114 -48 55 -92 108 -100
117 -11 16 -8 24 26 65 132 159 235 381 258 558 3 28 11 69 17 93 l11 42 56 0
c31 0 162 9 291 20 129 11 246 20 260 21 45 3 -62 17 -165 22 -62 3 -79 2 -45
-3z m-434 -137 c-4 -36 -12 -88 -17 -115 -11 -48 -12 -49 -42 -44 l-32 6 28
-11 c15 -6 27 -14 27 -18 0 -28 -93 -251 -105 -251 -8 0 -115 61 -115 66 0 3
9 22 20 44 11 22 20 43 20 47 -1 4 -12 -14 -26 -40 -14 -26 -28 -46 -32 -44
-6 4 -202 118 -287 167 -16 10 -29 22 -28 26 12 48 51 124 63 124 12 0 12 2 2
9 -20 12 5 61 32 62 12 0 32 2 46 3 14 2 77 6 140 10 63 4 125 9 138 12 20 4
22 0 24 -33 l1 -38 4 37 c4 40 8 41 112 46 l34 2 -7 -67z m-552 -10 c-18 -73
-87 -213 -105 -213 -4 0 -22 17 -40 38 -110 124 -148 168 -151 177 -3 9 70 15
255 23 47 2 47 2 41 -25z m-314 -235 c54 -46 98 -87 96 -93 -4 -15 -166 -94
-210 -101 l-39 -7 6 34 c4 19 9 85 13 147 6 92 10 112 21 108 8 -3 59 -43 113
-88z m427 -29 c87 -51 160 -93 162 -95 10 -9 -108 -166 -121 -162 -5 2 -62 66
-127 142 l-118 140 19 33 c11 18 22 33 23 33 2 0 75 -41 162 -91z m-160 -201
l145 -122 -24 -21 c-13 -11 -38 -31 -54 -45 -45 -37 -16 -20 38 23 l47 37 48
-41 c26 -23 49 -45 51 -50 5 -12 -180 -149 -202 -149 -2 0 -19 25 -37 56 l-32
57 24 20 24 19 -27 -15 -26 -16 -81 140 c-45 77 -78 145 -75 151 4 6 3 8 -2 5
-6 -3 -15 3 -22 13 -10 16 -7 21 21 39 18 11 34 21 36 21 2 0 69 -55 148 -122z
m446 33 c7 -7 -48 -92 -111 -169 l-36 -44 -28 34 c-66 76 -65 69 -9 143 28 36
55 75 61 85 10 19 12 18 63 -11 28 -17 55 -34 60 -38z"/>
<path d="M3232 2275 c0 -16 2 -22 5 -12 2 9 2 23 0 30 -3 6 -5 -1 -5 -18z"/>
<path d="M2890 2280 c0 -6 7 -10 15 -10 8 0 15 2 15 4 0 2 -7 6 -15 10 -8 3
-15 1 -15 -4z"/>
<path d="M2945 2261 c11 -4 36 -11 55 -15 24 -4 29 -3 15 3 -11 4 -36 11 -55
15 -24 4 -29 3 -15 -3z"/>
<path d="M3041 2236 c2 -2 41 -14 87 -26 45 -12 82 -25 82 -29 0 -3 19 -6 43
-7 l42 -1 -35 11 c-25 8 -35 17 -34 31 1 15 0 16 -3 3 -5 -22 -8 -22 -95 2
-71 19 -96 24 -87 16z"/>
<path d="M3181 2099 c-6 -18 -9 -34 -7 -36 2 -2 9 10 15 28 6 18 9 34 7 36 -2
2 -9 -10 -15 -28z"/>
<path d="M718 2423 c18 -2 45 -2 60 0 15 2 0 4 -33 4 -33 0 -45 -2 -27 -4z"/>
<path d="M838 2413 c17 -2 47 -2 65 0 17 2 3 4 -33 4 -36 0 -50 -2 -32 -4z"/>
<path d="M1003 2403 c9 -2 23 -2 30 0 6 3 -1 5 -18 5 -16 0 -22 -2 -12 -5z"/>
<path d="M2070 2400 c1 -8 7 -26 15 -40 8 -14 14 -29 15 -33 0 -5 -37 -6 -82
-3 -46 3 -68 2 -50 -2 l33 -7 -92 -108 c-50 -59 -96 -106 -103 -104 -16 5
-106 187 -106 215 l0 24 113 -5 c80 -3 93 -2 47 3 -36 4 -93 8 -126 9 l-62 1
19 -60 c10 -33 27 -78 38 -100 l19 -40 -141 -81 c-78 -45 -152 -89 -164 -96
-21 -14 -23 -12 -51 44 -41 82 -67 164 -54 172 6 3 78 24 161 45 83 21 151 42
151 46 0 4 -19 1 -42 -6 -90 -27 -280 -76 -283 -72 -2 1 -8 23 -14 48 l-10 45
5 -51 5 -51 -48 -12 c-26 -7 -55 -14 -64 -17 -20 -6 -35 47 -45 154 l-7 70 44
-4 c24 -3 59 -7 76 -9 18 -2 33 0 33 4 0 10 -228 26 -237 17 -4 -3 10 -6 30
-6 35 0 37 -2 37 -31 0 -60 42 -235 77 -324 44 -111 111 -226 181 -312 48 -57
52 -66 40 -81 -8 -9 -59 -69 -113 -132 -55 -63 -91 -108 -80 -100 10 8 70 59
133 112 l114 97 63 -52 c90 -74 211 -144 318 -185 98 -37 248 -72 309 -72 36
0 37 -1 43 -42 4 -24 17 -171 29 -328 23 -285 30 -310 40 -125 3 58 2 76 -3
50 -5 -22 -9 281 -10 673 -1 671 0 712 17 713 9 1 -11 5 -44 9 -78 9 -119 37
-150 104 -13 28 -24 44 -24 36z m-734 -272 c9 -29 30 -79 46 -112 16 -32 28
-59 26 -61 -7 -6 -109 -65 -113 -65 -17 0 -110 229 -103 251 4 13 72 36 110
38 11 1 22 -15 34 -51z m822 -103 c5 -77 8 -142 6 -144 -13 -14 -170 48 -223
88 l-24 19 34 29 c19 17 68 59 109 95 41 37 78 63 81 60 4 -4 11 -70 17 -147z
m-382 83 l21 -32 -119 -141 c-65 -77 -123 -141 -127 -143 -15 -5 -130 153
-119 163 8 7 252 147 266 153 10 3 23 12 30 19 19 19 25 17 48 -19z m157 -157
c15 -8 27 -19 27 -24 0 -5 -15 -35 -34 -66 -59 -99 -98 -171 -92 -171 3 0 30
44 60 98 83 146 69 136 149 105 51 -21 66 -31 61 -43 -3 -8 -7 -22 -9 -30 -2
-8 -10 -44 -20 -79 -9 -35 -14 -65 -12 -67 2 -2 15 37 28 88 23 86 27 93 52
96 15 2 27 0 27 -5 0 -4 7 -84 15 -178 18 -212 18 -205 -2 -206 -16 -1 -16 -2
-2 -6 18 -4 29 -44 29 -105 l0 -39 -52 7 c-130 16 -253 49 -360 98 -90 41 -91
42 -51 109 l34 57 32 -15 c28 -14 29 -14 13 -1 -10 8 -24 17 -30 19 -7 2 -2
20 13 48 28 51 18 46 -13 -6 l-21 -35 -50 34 c-28 19 -65 47 -84 63 l-33 28
126 109 c112 96 129 106 144 94 15 -11 16 -11 5 3 -10 12 -10 18 -1 27 7 7 15
11 18 9 3 -1 17 -9 33 -16z m-475 -65 c24 -35 51 -71 62 -81 11 -10 20 -21 20
-25 0 -3 -20 -30 -45 -58 l-44 -53 -61 77 c-33 42 -67 89 -75 105 -14 27 -14
29 7 42 13 8 39 24 58 35 19 12 35 22 36 22 0 0 19 -29 42 -64z m163 -182 c11
-13 40 -35 147 -110 7 -5 -63 -114 -72 -114 -12 0 -160 107 -183 132 -16 18
-15 21 33 63 27 24 52 44 55 45 4 0 12 -7 20 -16z"/>
<path d="M2036 1594 c-9 -37 -15 -68 -13 -71 3 -2 12 26 21 63 9 37 15 68 13
71 -3 2 -12 -26 -21 -63z"/>
<path d="M1870 1545 c14 -8 30 -14 35 -14 6 0 -1 6 -15 14 -14 8 -29 14 -35
14 -5 0 1 -6 15 -14z"/>
<path d="M1945 1515 c17 -8 37 -14 45 -14 8 0 -1 7 -20 14 -46 18 -64 17 -25
0z"/>
<path d="M2001 1465 c-14 -58 -12 -71 4 -20 11 38 14 40 51 38 37 -2 38 -2 8
6 -17 4 -35 11 -41 14 -6 4 -15 -11 -22 -38z"/>
<path d="M2113 1473 c9 -2 23 -2 30 0 6 3 -1 5 -18 5 -16 0 -22 -2 -12 -5z"/>
<path d="M1981 1384 c0 -11 3 -14 6 -6 3 7 2 16 -1 19 -3 4 -6 -2 -5 -13z"/>
<path d="M1318 2373 c6 -2 18 -2 25 0 6 3 1 5 -13 5 -14 0 -19 -2 -12 -5z"/>
<path d="M1368 2373 c6 -2 18 -2 25 0 6 3 1 5 -13 5 -14 0 -19 -2 -12 -5z"/>
<path d="M1418 2373 c7 -3 16 -2 19 1 4 3 -2 6 -13 5 -11 0 -14 -3 -6 -6z"/>
<path d="M1483 2363 c15 -2 37 -2 50 0 12 2 0 4 -28 4 -27 0 -38 -2 -22 -4z"/>
<path d="M1292 2330 c0 -19 2 -27 5 -17 2 9 2 25 0 35 -3 9 -5 1 -5 -18z"/>
<path d="M1583 2353 c15 -2 37 -2 50 0 12 2 0 4 -28 4 -27 0 -38 -2 -22 -4z"/>
<path d="M1680 2175 c0 -5 5 -17 10 -25 5 -8 10 -10 10 -5 0 6 -5 17 -10 25
-5 8 -10 11 -10 5z"/>
<path d="M1023 2125 c-7 -20 2 -29 21 -22 9 4 13 13 10 22 -8 19 -23 19 -31 0z"/>
<path d="M3465 2131 c-8 -15 3 -31 21 -31 9 0 14 7 12 17 -4 20 -24 28 -33 14z"/>
<path d="M1146 1822 c-8 -13 11 -35 23 -28 16 10 14 36 -3 36 -8 0 -17 -4 -20
-8z"/>
<path d="M3342 1814 c4 -21 22 -23 26 -1 2 10 -3 17 -13 17 -10 0 -15 -6 -13
-16z"/>
<path d="M1350 1716 c0 -2 8 -10 18 -17 15 -13 16 -12 3 4 -13 16 -21 21 -21
13z"/>
<path d="M2477 1660 c3 -19 12 -53 19 -75 13 -38 13 -38 7 -5 -3 19 -12 53
-19 75 -13 38 -13 38 -7 5z"/>
<path d="M3009 1543 c-13 -16 -12 -17 4 -4 9 7 17 15 17 17 0 8 -8 3 -21 -13z"/>
<path d="M2512 1523 c5 -18 0 -23 -31 -32 l-36 -10 37 5 37 5 17 -61 c9 -33
19 -59 21 -57 4 5 -37 160 -45 167 -3 3 -3 -5 0 -17z"/>
<path d="M2585 1520 c-13 -6 -15 -9 -5 -9 8 0 22 4 30 9 18 12 2 12 -25 0z"/>
<path d="M1610 1350 c0 -11 7 -20 15 -20 8 0 15 9 15 20 0 11 -7 20 -15 20 -8
0 -15 -9 -15 -20z"/>
<path d="M2874 1359 c-10 -17 13 -36 27 -22 12 12 4 33 -11 33 -5 0 -12 -5
-16 -11z"/>
<path d="M2311 1233 c1 -65 5 -61 12 10 2 26 1 47 -4 47 -5 0 -9 -26 -8 -57z"/>
<path d="M2398 1283 c6 -2 18 -2 25 0 6 3 1 5 -13 5 -14 0 -19 -2 -12 -5z"/>
<path d="M1914 1229 c-7 -12 15 -31 28 -23 4 3 8 12 8 20 0 17 -26 19 -36 3z"/>
<path d="M2570 1226 c0 -8 4 -17 9 -20 11 -7 33 18 24 27 -12 12 -33 7 -33 -7z"/>
<path d="M2303 1105 c0 -33 2 -45 4 -27 2 18 2 45 0 60 -2 15 -4 0 -4 -33z"/>
<path d="M2293 980 c0 -36 2 -50 4 -32 2 17 2 47 0 65 -2 17 -4 3 -4 -33z"/>
</g>
</svg>
